<mxfile host="65bd71144e">
    <diagram id="eiAeFlDT9yPq3gwcUD0u" name="Page-1">
        <mxGraphModel dx="2308" dy="1362" grid="1" gridSize="10" guides="1" tooltips="1" connect="1" arrows="1" fold="1" page="1" pageScale="1" pageWidth="850" pageHeight="1100" math="0" shadow="0">
            <root>
                <mxCell id="0"/>
                <mxCell id="1" parent="0"/>
                <mxCell id="32" value="" style="endArrow=none;html=1;" parent="1" edge="1">
                    <mxGeometry width="50" height="50" relative="1" as="geometry">
                        <mxPoint x="100" y="119.80000000000001" as="sourcePoint"/>
                        <mxPoint x="100" y="39.8" as="targetPoint"/>
                    </mxGeometry>
                </mxCell>
                <mxCell id="5" style="edgeStyle=none;html=1;entryX=1;entryY=0.5;entryDx=0;entryDy=0;entryPerimeter=0;exitX=1;exitY=0.5;exitDx=0;exitDy=0;exitPerimeter=0;endArrow=none;endFill=0;" parent="1" source="7" target="4" edge="1">
                    <mxGeometry relative="1" as="geometry">
                        <mxPoint x="320" y="240" as="sourcePoint"/>
                        <Array as="points">
                            <mxPoint x="450" y="190"/>
                            <mxPoint x="450" y="160"/>
                            <mxPoint x="450" y="80"/>
                        </Array>
                    </mxGeometry>
                </mxCell>
                <mxCell id="6" style="edgeStyle=none;html=1;entryX=0;entryY=0.5;entryDx=0;entryDy=0;entryPerimeter=0;endArrow=none;endFill=0;exitX=0;exitY=0.5;exitDx=0;exitDy=0;" parent="1" source="36" edge="1">
                    <mxGeometry relative="1" as="geometry">
                        <mxPoint x="200" y="159.8" as="sourcePoint"/>
                        <mxPoint x="200" y="79.80000000000001" as="targetPoint"/>
                        <Array as="points">
                            <mxPoint x="190" y="190"/>
                            <mxPoint x="180" y="190"/>
                            <mxPoint x="180" y="159.8"/>
                            <mxPoint x="180" y="129.8"/>
                            <mxPoint x="180" y="79.80000000000001"/>
                        </Array>
                    </mxGeometry>
                </mxCell>
                <mxCell id="8" style="edgeStyle=none;html=1;endArrow=none;endFill=0;entryX=1;entryY=0;entryDx=0;entryDy=0;entryPerimeter=0;exitX=0;exitY=0.5;exitDx=0;exitDy=0;exitPerimeter=0;" parent="1" edge="1" source="4">
                    <mxGeometry relative="1" as="geometry">
                        <mxPoint x="149.090909090909" y="79.79999999999995" as="targetPoint"/>
                        <mxPoint x="200" y="79.80000000000001" as="sourcePoint"/>
                        <Array as="points">
                            <mxPoint x="250" y="80"/>
                        </Array>
                    </mxGeometry>
                </mxCell>
                <mxCell id="39" style="edgeStyle=none;html=1;endArrow=none;endFill=0;" parent="1" source="4" target="15" edge="1">
                    <mxGeometry relative="1" as="geometry"/>
                </mxCell>
                <mxCell id="4" value="" style="verticalLabelPosition=bottom;shadow=0;dashed=0;align=center;html=1;verticalAlign=top;shape=mxgraph.electrical.logic_gates.inverter_2" parent="1" vertex="1">
                    <mxGeometry x="310" y="40" width="120" height="80" as="geometry"/>
                </mxCell>
                <mxCell id="7" value="" style="verticalLabelPosition=bottom;shadow=0;dashed=0;align=center;html=1;verticalAlign=top;shape=mxgraph.electrical.logic_gates.inverter_2;flipH=1;" parent="1" vertex="1">
                    <mxGeometry x="310" y="150.2" width="120" height="80" as="geometry"/>
                </mxCell>
                <mxCell id="15" value="Qbar" style="text;html=1;strokeColor=none;fillColor=none;align=center;verticalAlign=middle;whiteSpace=wrap;rounded=0;" parent="1" vertex="1">
                    <mxGeometry x="470" y="65" width="40" height="30" as="geometry"/>
                </mxCell>
                <mxCell id="24" value="" style="verticalLabelPosition=bottom;shadow=0;dashed=0;align=center;html=1;verticalAlign=top;shape=mxgraph.electrical.logic_gates.buffer2;" parent="1" vertex="1">
                    <mxGeometry x="40" y="39.999999999999986" width="120" height="80" as="geometry"/>
                </mxCell>
                <mxCell id="28" value="" style="verticalLabelPosition=bottom;shadow=0;dashed=0;align=center;html=1;verticalAlign=top;shape=mxgraph.electrical.logic_gates.inverting_contact;" parent="1" vertex="1">
                    <mxGeometry x="95" y="100" width="10" height="10" as="geometry"/>
                </mxCell>
                <mxCell id="31" value="" style="verticalLabelPosition=bottom;shadow=0;dashed=0;align=center;html=1;verticalAlign=top;shape=mxgraph.electrical.logic_gates.buffer2;flipH=1;" parent="1" vertex="1">
                    <mxGeometry x="40" y="39.999999999999986" width="120" height="80" as="geometry"/>
                </mxCell>
                <mxCell id="37" value="" style="group;flipV=1;" parent="1" vertex="1" connectable="0">
                    <mxGeometry x="200" y="149.99999999999994" width="120" height="80.20000000000005" as="geometry"/>
                </mxCell>
                <mxCell id="33" value="" style="endArrow=none;html=1;" parent="37" edge="1">
                    <mxGeometry width="50" height="50" relative="1" as="geometry">
                        <mxPoint x="60" y="0.20000000000004547" as="sourcePoint"/>
                        <mxPoint x="60" y="80.20000000000005" as="targetPoint"/>
                    </mxGeometry>
                </mxCell>
                <mxCell id="34" value="" style="verticalLabelPosition=bottom;shadow=0;dashed=0;align=center;html=1;verticalAlign=top;shape=mxgraph.electrical.logic_gates.buffer2;" parent="37" vertex="1">
                    <mxGeometry width="120" height="80" as="geometry"/>
                </mxCell>
                <mxCell id="35" value="" style="verticalLabelPosition=bottom;shadow=0;dashed=0;align=center;html=1;verticalAlign=top;shape=mxgraph.electrical.logic_gates.inverting_contact;" parent="37" vertex="1">
                    <mxGeometry x="55" y="60" width="10" height="10" as="geometry"/>
                </mxCell>
                <mxCell id="36" value="" style="verticalLabelPosition=bottom;shadow=0;dashed=0;align=center;html=1;verticalAlign=top;shape=mxgraph.electrical.logic_gates.buffer2;flipH=1;" parent="37" vertex="1">
                    <mxGeometry width="120" height="80" as="geometry"/>
                </mxCell>
                <mxCell id="40" value="EN" style="text;html=1;strokeColor=none;fillColor=none;align=center;verticalAlign=middle;whiteSpace=wrap;rounded=0;" parent="1" vertex="1">
                    <mxGeometry x="70" y="10" width="60" height="30" as="geometry"/>
                </mxCell>
                <mxCell id="41" value="ENbar" style="text;html=1;strokeColor=none;fillColor=none;align=center;verticalAlign=middle;whiteSpace=wrap;rounded=0;" parent="1" vertex="1">
                    <mxGeometry x="70" y="120" width="60" height="30" as="geometry"/>
                </mxCell>
                <mxCell id="42" value="ENbar" style="text;html=1;strokeColor=none;fillColor=none;align=center;verticalAlign=middle;whiteSpace=wrap;rounded=0;" parent="1" vertex="1">
                    <mxGeometry x="230" y="129.99999999999997" width="60" height="20.2" as="geometry"/>
                </mxCell>
                <mxCell id="43" value="EN" style="text;html=1;strokeColor=none;fillColor=none;align=center;verticalAlign=middle;whiteSpace=wrap;rounded=0;" parent="1" vertex="1">
                    <mxGeometry x="230" y="230.2" width="60" height="20.2" as="geometry"/>
                </mxCell>
                <mxCell id="89" value="" style="endArrow=none;html=1;" edge="1" parent="1">
                    <mxGeometry width="50" height="50" relative="1" as="geometry">
                        <mxPoint x="250" y="80" as="sourcePoint"/>
                        <mxPoint x="250" y="20" as="targetPoint"/>
                    </mxGeometry>
                </mxCell>
                <mxCell id="90" value="Q" style="text;html=1;strokeColor=none;fillColor=none;align=center;verticalAlign=middle;whiteSpace=wrap;rounded=0;" vertex="1" parent="1">
                    <mxGeometry x="240" width="20" height="20" as="geometry"/>
                </mxCell>
                <mxCell id="93" value="" style="endArrow=none;html=1;" edge="1" parent="1">
                    <mxGeometry width="50" height="50" relative="1" as="geometry">
                        <mxPoint x="160" y="389.79999999999995" as="sourcePoint"/>
                        <mxPoint x="160" y="309.79999999999995" as="targetPoint"/>
                    </mxGeometry>
                </mxCell>
                <mxCell id="95" style="edgeStyle=none;html=1;entryX=0;entryY=0.5;entryDx=0;entryDy=0;entryPerimeter=0;endArrow=none;endFill=0;exitX=0;exitY=0.5;exitDx=0;exitDy=0;" edge="1" parent="1" source="108">
                    <mxGeometry relative="1" as="geometry">
                        <mxPoint x="260" y="429.8" as="sourcePoint"/>
                        <mxPoint x="260" y="349.79999999999995" as="targetPoint"/>
                        <Array as="points">
                            <mxPoint x="250" y="460"/>
                            <mxPoint x="240" y="460"/>
                            <mxPoint x="240" y="429.8"/>
                            <mxPoint x="240" y="399.8"/>
                            <mxPoint x="240" y="349.8"/>
                        </Array>
                    </mxGeometry>
                </mxCell>
                <mxCell id="96" style="edgeStyle=none;html=1;endArrow=none;endFill=0;entryX=1;entryY=0;entryDx=0;entryDy=0;entryPerimeter=0;exitX=0;exitY=0.5;exitDx=0;exitDy=0;exitPerimeter=0;" edge="1" parent="1" source="98">
                    <mxGeometry relative="1" as="geometry">
                        <mxPoint x="209.090909090909" y="349.79999999999995" as="targetPoint"/>
                        <mxPoint x="260" y="349.8" as="sourcePoint"/>
                        <Array as="points">
                            <mxPoint x="310" y="350"/>
                        </Array>
                    </mxGeometry>
                </mxCell>
                <mxCell id="97" style="edgeStyle=none;html=1;endArrow=none;endFill=0;" edge="1" parent="1" source="98" target="100">
                    <mxGeometry relative="1" as="geometry"/>
                </mxCell>
                <mxCell id="117" style="edgeStyle=none;html=1;entryX=0;entryY=0.75;entryDx=0;entryDy=0;entryPerimeter=0;endArrow=none;endFill=0;rounded=0;" edge="1" parent="1" target="116">
                    <mxGeometry relative="1" as="geometry">
                        <mxPoint x="510" y="350" as="sourcePoint"/>
                        <Array as="points">
                            <mxPoint x="510" y="445"/>
                        </Array>
                    </mxGeometry>
                </mxCell>
                <mxCell id="98" value="" style="verticalLabelPosition=bottom;shadow=0;dashed=0;align=center;html=1;verticalAlign=top;shape=mxgraph.electrical.logic_gates.inverter_2" vertex="1" parent="1">
                    <mxGeometry x="370" y="310" width="120" height="80" as="geometry"/>
                </mxCell>
                <mxCell id="100" value="Q" style="text;html=1;strokeColor=none;fillColor=none;align=center;verticalAlign=middle;whiteSpace=wrap;rounded=0;" vertex="1" parent="1">
                    <mxGeometry x="530" y="335" width="20" height="30" as="geometry"/>
                </mxCell>
                <mxCell id="101" value="" style="verticalLabelPosition=bottom;shadow=0;dashed=0;align=center;html=1;verticalAlign=top;shape=mxgraph.electrical.logic_gates.buffer2;" vertex="1" parent="1">
                    <mxGeometry x="100" y="310" width="120" height="80" as="geometry"/>
                </mxCell>
                <mxCell id="102" value="" style="verticalLabelPosition=bottom;shadow=0;dashed=0;align=center;html=1;verticalAlign=top;shape=mxgraph.electrical.logic_gates.inverting_contact;" vertex="1" parent="1">
                    <mxGeometry x="155" y="370" width="10" height="10" as="geometry"/>
                </mxCell>
                <mxCell id="103" value="" style="verticalLabelPosition=bottom;shadow=0;dashed=0;align=center;html=1;verticalAlign=top;shape=mxgraph.electrical.logic_gates.buffer2;flipH=1;" vertex="1" parent="1">
                    <mxGeometry x="100" y="310" width="120" height="80" as="geometry"/>
                </mxCell>
                <mxCell id="104" value="" style="group;flipV=1;" vertex="1" connectable="0" parent="1">
                    <mxGeometry x="260" y="419.99999999999994" width="120" height="80.20000000000005" as="geometry"/>
                </mxCell>
                <mxCell id="105" value="" style="endArrow=none;html=1;" edge="1" parent="104">
                    <mxGeometry width="50" height="50" relative="1" as="geometry">
                        <mxPoint x="60" y="0.20000000000004547" as="sourcePoint"/>
                        <mxPoint x="60" y="80.20000000000005" as="targetPoint"/>
                    </mxGeometry>
                </mxCell>
                <mxCell id="106" value="" style="verticalLabelPosition=bottom;shadow=0;dashed=0;align=center;html=1;verticalAlign=top;shape=mxgraph.electrical.logic_gates.buffer2;" vertex="1" parent="104">
                    <mxGeometry width="120" height="80" as="geometry"/>
                </mxCell>
                <mxCell id="107" value="" style="verticalLabelPosition=bottom;shadow=0;dashed=0;align=center;html=1;verticalAlign=top;shape=mxgraph.electrical.logic_gates.inverting_contact;" vertex="1" parent="104">
                    <mxGeometry x="55" y="60" width="10" height="10" as="geometry"/>
                </mxCell>
                <mxCell id="108" value="" style="verticalLabelPosition=bottom;shadow=0;dashed=0;align=center;html=1;verticalAlign=top;shape=mxgraph.electrical.logic_gates.buffer2;flipH=1;" vertex="1" parent="104">
                    <mxGeometry width="120" height="80" as="geometry"/>
                </mxCell>
                <mxCell id="109" value="EN" style="text;html=1;strokeColor=none;fillColor=none;align=center;verticalAlign=middle;whiteSpace=wrap;rounded=0;" vertex="1" parent="1">
                    <mxGeometry x="130" y="280" width="60" height="30" as="geometry"/>
                </mxCell>
                <mxCell id="110" value="ENbar" style="text;html=1;strokeColor=none;fillColor=none;align=center;verticalAlign=middle;whiteSpace=wrap;rounded=0;" vertex="1" parent="1">
                    <mxGeometry x="130" y="390" width="60" height="30" as="geometry"/>
                </mxCell>
                <mxCell id="111" value="ENbar" style="text;html=1;strokeColor=none;fillColor=none;align=center;verticalAlign=middle;whiteSpace=wrap;rounded=0;" vertex="1" parent="1">
                    <mxGeometry x="290" y="400" width="60" height="20.2" as="geometry"/>
                </mxCell>
                <mxCell id="112" value="EN" style="text;html=1;strokeColor=none;fillColor=none;align=center;verticalAlign=middle;whiteSpace=wrap;rounded=0;" vertex="1" parent="1">
                    <mxGeometry x="290" y="500.2" width="60" height="20.2" as="geometry"/>
                </mxCell>
                <mxCell id="113" value="" style="endArrow=none;html=1;" edge="1" parent="1">
                    <mxGeometry width="50" height="50" relative="1" as="geometry">
                        <mxPoint x="310" y="350" as="sourcePoint"/>
                        <mxPoint x="310" y="290" as="targetPoint"/>
                    </mxGeometry>
                </mxCell>
                <mxCell id="114" value="Qbar" style="text;html=1;strokeColor=none;fillColor=none;align=center;verticalAlign=middle;whiteSpace=wrap;rounded=0;" vertex="1" parent="1">
                    <mxGeometry x="300" y="270" width="20" height="20" as="geometry"/>
                </mxCell>
                <mxCell id="115" value="" style="verticalLabelPosition=bottom;shadow=0;dashed=0;align=center;html=1;verticalAlign=top;shape=mxgraph.electrical.logic_gates.logic_gate;operation=or;negating=1;negSize=0.15;" vertex="1" parent="1">
                    <mxGeometry x="20" y="320" width="100" height="60" as="geometry"/>
                </mxCell>
                <mxCell id="116" value="" style="verticalLabelPosition=bottom;shadow=0;dashed=0;align=center;html=1;verticalAlign=top;shape=mxgraph.electrical.logic_gates.logic_gate;operation=or;negating=1;negSize=0.15;rotation=-180;" vertex="1" parent="1">
                    <mxGeometry x="380" y="430.1" width="100" height="60" as="geometry"/>
                </mxCell>
                <mxCell id="119" value="D" style="text;html=1;strokeColor=none;fillColor=none;align=center;verticalAlign=middle;whiteSpace=wrap;rounded=0;" vertex="1" parent="1">
                    <mxGeometry x="20" y="70" width="20" height="20" as="geometry"/>
                </mxCell>
                <mxCell id="120" value="D" style="text;html=1;strokeColor=none;fillColor=none;align=center;verticalAlign=middle;whiteSpace=wrap;rounded=0;" vertex="1" parent="1">
                    <mxGeometry y="350" width="20" height="30" as="geometry"/>
                </mxCell>
                <mxCell id="121" value="S" style="text;html=1;strokeColor=none;fillColor=none;align=center;verticalAlign=middle;whiteSpace=wrap;rounded=0;" vertex="1" parent="1">
                    <mxGeometry y="320" width="20" height="30" as="geometry"/>
                </mxCell>
                <mxCell id="122" value="S" style="text;html=1;strokeColor=none;fillColor=none;align=center;verticalAlign=middle;whiteSpace=wrap;rounded=0;" vertex="1" parent="1">
                    <mxGeometry x="480" y="460.1" width="20" height="30" as="geometry"/>
                </mxCell>
                <mxCell id="123" value="" style="endArrow=none;html=1;" edge="1" parent="1">
                    <mxGeometry width="50" height="50" relative="1" as="geometry">
                        <mxPoint x="160" y="650.1999999999999" as="sourcePoint"/>
                        <mxPoint x="160" y="570.1999999999999" as="targetPoint"/>
                    </mxGeometry>
                </mxCell>
                <mxCell id="124" style="edgeStyle=none;html=1;entryX=0;entryY=0.5;entryDx=0;entryDy=0;entryPerimeter=0;endArrow=none;endFill=0;exitX=0;exitY=0.5;exitDx=0;exitDy=0;" edge="1" parent="1" source="137">
                    <mxGeometry relative="1" as="geometry">
                        <mxPoint x="260" y="690.1999999999999" as="sourcePoint"/>
                        <mxPoint x="260" y="610.1999999999999" as="targetPoint"/>
                        <Array as="points">
                            <mxPoint x="250" y="720.4"/>
                            <mxPoint x="240" y="720.4"/>
                            <mxPoint x="240" y="690.1999999999999"/>
                            <mxPoint x="240" y="660.1999999999999"/>
                            <mxPoint x="240" y="610.1999999999999"/>
                        </Array>
                    </mxGeometry>
                </mxCell>
                <mxCell id="125" style="edgeStyle=none;html=1;endArrow=none;endFill=0;entryX=1;entryY=0;entryDx=0;entryDy=0;entryPerimeter=0;exitX=0;exitY=0.5;exitDx=0;exitDy=0;exitPerimeter=0;" edge="1" parent="1" source="128">
                    <mxGeometry relative="1" as="geometry">
                        <mxPoint x="209.090909090909" y="610.1999999999999" as="targetPoint"/>
                        <mxPoint x="260" y="610.1999999999999" as="sourcePoint"/>
                        <Array as="points">
                            <mxPoint x="310" y="610.4"/>
                        </Array>
                    </mxGeometry>
                </mxCell>
                <mxCell id="126" style="edgeStyle=none;html=1;endArrow=none;endFill=0;" edge="1" parent="1" source="128" target="129">
                    <mxGeometry relative="1" as="geometry"/>
                </mxCell>
                <mxCell id="127" style="edgeStyle=none;html=1;entryX=0;entryY=0.75;entryDx=0;entryDy=0;entryPerimeter=0;endArrow=none;endFill=0;rounded=0;" edge="1" parent="1">
                    <mxGeometry relative="1" as="geometry">
                        <mxPoint x="510" y="610.4" as="sourcePoint"/>
                        <Array as="points">
                            <mxPoint x="510" y="705.4"/>
                        </Array>
                        <mxPoint x="480" y="705.4999999999999" as="targetPoint"/>
                    </mxGeometry>
                </mxCell>
                <mxCell id="128" value="" style="verticalLabelPosition=bottom;shadow=0;dashed=0;align=center;html=1;verticalAlign=top;shape=mxgraph.electrical.logic_gates.inverter_2" vertex="1" parent="1">
                    <mxGeometry x="370" y="570.4" width="120" height="80" as="geometry"/>
                </mxCell>
                <mxCell id="129" value="Q" style="text;html=1;strokeColor=none;fillColor=none;align=center;verticalAlign=middle;whiteSpace=wrap;rounded=0;" vertex="1" parent="1">
                    <mxGeometry x="530" y="595.4" width="20" height="30" as="geometry"/>
                </mxCell>
                <mxCell id="130" value="" style="verticalLabelPosition=bottom;shadow=0;dashed=0;align=center;html=1;verticalAlign=top;shape=mxgraph.electrical.logic_gates.buffer2;" vertex="1" parent="1">
                    <mxGeometry x="100" y="570.4" width="120" height="80" as="geometry"/>
                </mxCell>
                <mxCell id="131" value="" style="verticalLabelPosition=bottom;shadow=0;dashed=0;align=center;html=1;verticalAlign=top;shape=mxgraph.electrical.logic_gates.inverting_contact;" vertex="1" parent="1">
                    <mxGeometry x="155" y="630.4" width="10" height="10" as="geometry"/>
                </mxCell>
                <mxCell id="132" value="" style="verticalLabelPosition=bottom;shadow=0;dashed=0;align=center;html=1;verticalAlign=top;shape=mxgraph.electrical.logic_gates.buffer2;flipH=1;" vertex="1" parent="1">
                    <mxGeometry x="100" y="570.4" width="120" height="80" as="geometry"/>
                </mxCell>
                <mxCell id="133" value="" style="group;flipV=1;" vertex="1" connectable="0" parent="1">
                    <mxGeometry x="260" y="680.4" width="120" height="80.20000000000005" as="geometry"/>
                </mxCell>
                <mxCell id="134" value="" style="endArrow=none;html=1;" edge="1" parent="133">
                    <mxGeometry width="50" height="50" relative="1" as="geometry">
                        <mxPoint x="60" y="0.20000000000004547" as="sourcePoint"/>
                        <mxPoint x="60" y="80.20000000000005" as="targetPoint"/>
                    </mxGeometry>
                </mxCell>
                <mxCell id="135" value="" style="verticalLabelPosition=bottom;shadow=0;dashed=0;align=center;html=1;verticalAlign=top;shape=mxgraph.electrical.logic_gates.buffer2;" vertex="1" parent="133">
                    <mxGeometry width="120" height="80" as="geometry"/>
                </mxCell>
                <mxCell id="136" value="" style="verticalLabelPosition=bottom;shadow=0;dashed=0;align=center;html=1;verticalAlign=top;shape=mxgraph.electrical.logic_gates.inverting_contact;" vertex="1" parent="133">
                    <mxGeometry x="55" y="60" width="10" height="10" as="geometry"/>
                </mxCell>
                <mxCell id="137" value="" style="verticalLabelPosition=bottom;shadow=0;dashed=0;align=center;html=1;verticalAlign=top;shape=mxgraph.electrical.logic_gates.buffer2;flipH=1;" vertex="1" parent="133">
                    <mxGeometry width="120" height="80" as="geometry"/>
                </mxCell>
                <mxCell id="138" value="EN" style="text;html=1;strokeColor=none;fillColor=none;align=center;verticalAlign=middle;whiteSpace=wrap;rounded=0;" vertex="1" parent="1">
                    <mxGeometry x="130" y="540.4" width="60" height="30" as="geometry"/>
                </mxCell>
                <mxCell id="139" value="ENbar" style="text;html=1;strokeColor=none;fillColor=none;align=center;verticalAlign=middle;whiteSpace=wrap;rounded=0;" vertex="1" parent="1">
                    <mxGeometry x="130" y="650.4" width="60" height="30" as="geometry"/>
                </mxCell>
                <mxCell id="140" value="ENbar" style="text;html=1;strokeColor=none;fillColor=none;align=center;verticalAlign=middle;whiteSpace=wrap;rounded=0;" vertex="1" parent="1">
                    <mxGeometry x="290" y="660.4" width="60" height="20.2" as="geometry"/>
                </mxCell>
                <mxCell id="141" value="EN" style="text;html=1;strokeColor=none;fillColor=none;align=center;verticalAlign=middle;whiteSpace=wrap;rounded=0;" vertex="1" parent="1">
                    <mxGeometry x="290" y="760.6" width="60" height="20.2" as="geometry"/>
                </mxCell>
                <mxCell id="142" value="" style="endArrow=none;html=1;" edge="1" parent="1">
                    <mxGeometry width="50" height="50" relative="1" as="geometry">
                        <mxPoint x="310" y="610.4" as="sourcePoint"/>
                        <mxPoint x="310" y="550.4" as="targetPoint"/>
                    </mxGeometry>
                </mxCell>
                <mxCell id="143" value="Qbar" style="text;html=1;strokeColor=none;fillColor=none;align=center;verticalAlign=middle;whiteSpace=wrap;rounded=0;" vertex="1" parent="1">
                    <mxGeometry x="300" y="530.4" width="20" height="20" as="geometry"/>
                </mxCell>
                <mxCell id="146" value="D" style="text;html=1;strokeColor=none;fillColor=none;align=center;verticalAlign=middle;whiteSpace=wrap;rounded=0;" vertex="1" parent="1">
                    <mxGeometry y="610.4" width="20" height="30" as="geometry"/>
                </mxCell>
                <mxCell id="147" value="S" style="text;html=1;strokeColor=none;fillColor=none;align=center;verticalAlign=middle;whiteSpace=wrap;rounded=0;" vertex="1" parent="1">
                    <mxGeometry y="580.4" width="20" height="30" as="geometry"/>
                </mxCell>
                <mxCell id="148" value="S" style="text;html=1;strokeColor=none;fillColor=none;align=center;verticalAlign=middle;whiteSpace=wrap;rounded=0;" vertex="1" parent="1">
                    <mxGeometry x="480" y="720.5" width="20" height="30" as="geometry"/>
                </mxCell>
                <mxCell id="149" value="" style="verticalLabelPosition=bottom;shadow=0;dashed=0;align=center;html=1;verticalAlign=top;shape=mxgraph.electrical.logic_gates.logic_gate;operation=and;negating=1;negSize=0.15;" vertex="1" parent="1">
                    <mxGeometry x="20" y="580.4" width="100" height="60" as="geometry"/>
                </mxCell>
                <mxCell id="150" value="" style="verticalLabelPosition=bottom;shadow=0;dashed=0;align=center;html=1;verticalAlign=top;shape=mxgraph.electrical.logic_gates.logic_gate;operation=and;negating=1;negSize=0.15;rotation=-180;" vertex="1" parent="1">
                    <mxGeometry x="380" y="690.5" width="100" height="60" as="geometry"/>
                </mxCell>
                <mxCell id="151" value="" style="endArrow=none;html=1;" edge="1" parent="1">
                    <mxGeometry width="50" height="50" relative="1" as="geometry">
                        <mxPoint x="180" y="919.8" as="sourcePoint"/>
                        <mxPoint x="180" y="839.8" as="targetPoint"/>
                    </mxGeometry>
                </mxCell>
                <mxCell id="152" style="edgeStyle=none;html=1;entryX=0;entryY=0.5;entryDx=0;entryDy=0;entryPerimeter=0;endArrow=none;endFill=0;exitX=0;exitY=0.5;exitDx=0;exitDy=0;" edge="1" parent="1" source="165">
                    <mxGeometry relative="1" as="geometry">
                        <mxPoint x="280" y="959.8" as="sourcePoint"/>
                        <mxPoint x="280" y="879.8" as="targetPoint"/>
                        <Array as="points">
                            <mxPoint x="270" y="990"/>
                            <mxPoint x="260" y="990"/>
                            <mxPoint x="260" y="959.8"/>
                            <mxPoint x="260" y="929.8"/>
                            <mxPoint x="260" y="879.8"/>
                        </Array>
                    </mxGeometry>
                </mxCell>
                <mxCell id="153" style="edgeStyle=none;html=1;endArrow=none;endFill=0;entryX=1;entryY=0;entryDx=0;entryDy=0;entryPerimeter=0;exitX=0;exitY=0.5;exitDx=0;exitDy=0;exitPerimeter=0;" edge="1" parent="1" source="156">
                    <mxGeometry relative="1" as="geometry">
                        <mxPoint x="229.090909090909" y="879.8" as="targetPoint"/>
                        <mxPoint x="280" y="879.8" as="sourcePoint"/>
                        <Array as="points">
                            <mxPoint x="330" y="880"/>
                        </Array>
                    </mxGeometry>
                </mxCell>
                <mxCell id="154" style="edgeStyle=none;html=1;endArrow=none;endFill=0;" edge="1" parent="1" source="156" target="157">
                    <mxGeometry relative="1" as="geometry"/>
                </mxCell>
                <mxCell id="156" value="" style="verticalLabelPosition=bottom;shadow=0;dashed=0;align=center;html=1;verticalAlign=top;shape=mxgraph.electrical.logic_gates.inverter_2" vertex="1" parent="1">
                    <mxGeometry x="390" y="840" width="120" height="80" as="geometry"/>
                </mxCell>
                <mxCell id="157" value="Qbar" style="text;html=1;strokeColor=none;fillColor=none;align=center;verticalAlign=middle;whiteSpace=wrap;rounded=0;" vertex="1" parent="1">
                    <mxGeometry x="640" y="865.25" width="40" height="30" as="geometry"/>
                </mxCell>
                <mxCell id="158" value="" style="verticalLabelPosition=bottom;shadow=0;dashed=0;align=center;html=1;verticalAlign=top;shape=mxgraph.electrical.logic_gates.buffer2;" vertex="1" parent="1">
                    <mxGeometry x="120" y="840" width="120" height="80" as="geometry"/>
                </mxCell>
                <mxCell id="159" value="" style="verticalLabelPosition=bottom;shadow=0;dashed=0;align=center;html=1;verticalAlign=top;shape=mxgraph.electrical.logic_gates.inverting_contact;" vertex="1" parent="1">
                    <mxGeometry x="175" y="900" width="10" height="10" as="geometry"/>
                </mxCell>
                <mxCell id="160" value="" style="verticalLabelPosition=bottom;shadow=0;dashed=0;align=center;html=1;verticalAlign=top;shape=mxgraph.electrical.logic_gates.buffer2;flipH=1;" vertex="1" parent="1">
                    <mxGeometry x="120" y="840" width="120" height="80" as="geometry"/>
                </mxCell>
                <mxCell id="161" value="" style="group;flipV=1;" vertex="1" connectable="0" parent="1">
                    <mxGeometry x="300" y="950" width="120" height="80.20000000000005" as="geometry"/>
                </mxCell>
                <mxCell id="162" value="" style="endArrow=none;html=1;" edge="1" parent="161">
                    <mxGeometry width="50" height="50" relative="1" as="geometry">
                        <mxPoint x="60" y="0.20000000000004547" as="sourcePoint"/>
                        <mxPoint x="60" y="80.20000000000005" as="targetPoint"/>
                    </mxGeometry>
                </mxCell>
                <mxCell id="163" value="" style="verticalLabelPosition=bottom;shadow=0;dashed=0;align=center;html=1;verticalAlign=top;shape=mxgraph.electrical.logic_gates.buffer2;" vertex="1" parent="161">
                    <mxGeometry width="120" height="80" as="geometry"/>
                </mxCell>
                <mxCell id="164" value="" style="verticalLabelPosition=bottom;shadow=0;dashed=0;align=center;html=1;verticalAlign=top;shape=mxgraph.electrical.logic_gates.inverting_contact;" vertex="1" parent="161">
                    <mxGeometry x="55" y="60" width="10" height="10" as="geometry"/>
                </mxCell>
                <mxCell id="165" value="" style="verticalLabelPosition=bottom;shadow=0;dashed=0;align=center;html=1;verticalAlign=top;shape=mxgraph.electrical.logic_gates.buffer2;flipH=1;" vertex="1" parent="161">
                    <mxGeometry width="120" height="80" as="geometry"/>
                </mxCell>
                <mxCell id="166" value="EN" style="text;html=1;strokeColor=none;fillColor=none;align=center;verticalAlign=middle;whiteSpace=wrap;rounded=0;" vertex="1" parent="1">
                    <mxGeometry x="150" y="810" width="60" height="30" as="geometry"/>
                </mxCell>
                <mxCell id="167" value="ENbar" style="text;html=1;strokeColor=none;fillColor=none;align=center;verticalAlign=middle;whiteSpace=wrap;rounded=0;" vertex="1" parent="1">
                    <mxGeometry x="150" y="920" width="60" height="30" as="geometry"/>
                </mxCell>
                <mxCell id="168" value="ENbar" style="text;html=1;strokeColor=none;fillColor=none;align=center;verticalAlign=middle;whiteSpace=wrap;rounded=0;" vertex="1" parent="1">
                    <mxGeometry x="330" y="930.1000000000001" width="60" height="20.2" as="geometry"/>
                </mxCell>
                <mxCell id="169" value="EN" style="text;html=1;strokeColor=none;fillColor=none;align=center;verticalAlign=middle;whiteSpace=wrap;rounded=0;" vertex="1" parent="1">
                    <mxGeometry x="330" y="1030.2" width="60" height="20.2" as="geometry"/>
                </mxCell>
                <mxCell id="170" value="" style="endArrow=none;html=1;" edge="1" parent="1">
                    <mxGeometry width="50" height="50" relative="1" as="geometry">
                        <mxPoint x="330" y="880" as="sourcePoint"/>
                        <mxPoint x="330" y="820" as="targetPoint"/>
                    </mxGeometry>
                </mxCell>
                <mxCell id="171" value="Q" style="text;html=1;strokeColor=none;fillColor=none;align=center;verticalAlign=middle;whiteSpace=wrap;rounded=0;" vertex="1" parent="1">
                    <mxGeometry x="320" y="800" width="20" height="20" as="geometry"/>
                </mxCell>
                <mxCell id="198" style="edgeStyle=none;rounded=0;html=1;entryX=0;entryY=0.5;entryDx=0;entryDy=0;endArrow=none;endFill=0;" edge="1" parent="1" source="173" target="190">
                    <mxGeometry relative="1" as="geometry"/>
                </mxCell>
                <mxCell id="173" value="S" style="text;html=1;strokeColor=none;fillColor=none;align=center;verticalAlign=middle;whiteSpace=wrap;rounded=0;" vertex="1" parent="1">
                    <mxGeometry x="80" y="800.2" width="20" height="20" as="geometry"/>
                </mxCell>
                <mxCell id="182" style="edgeStyle=none;rounded=0;html=1;entryX=0;entryY=0.5;entryDx=0;entryDy=0;endArrow=none;endFill=0;" edge="1" parent="1" source="174" target="177">
                    <mxGeometry relative="1" as="geometry"/>
                </mxCell>
                <mxCell id="174" value="S" style="text;html=1;strokeColor=none;fillColor=none;align=center;verticalAlign=middle;whiteSpace=wrap;rounded=0;" vertex="1" parent="1">
                    <mxGeometry x="440" y="1055.2" width="20" height="30" as="geometry"/>
                </mxCell>
                <mxCell id="183" style="edgeStyle=none;rounded=0;html=1;exitX=0.25;exitY=1;exitDx=0;exitDy=0;endArrow=none;endFill=0;" edge="1" parent="1" source="177">
                    <mxGeometry relative="1" as="geometry">
                        <mxPoint x="519.9999999999998" y="1020.0539325842697" as="targetPoint"/>
                    </mxGeometry>
                </mxCell>
                <mxCell id="177" value="" style="shape=trapezoid;perimeter=trapezoidPerimeter;whiteSpace=wrap;html=1;fixedSize=1;rotation=-90;" vertex="1" parent="1">
                    <mxGeometry x="390" y="960.1" width="120" height="60" as="geometry"/>
                </mxCell>
                <mxCell id="179" value="" style="edgeStyle=none;html=1;endArrow=none;endFill=0;rounded=0;" edge="1" parent="1">
                    <mxGeometry relative="1" as="geometry">
                        <mxPoint x="620" y="880.2" as="sourcePoint"/>
                        <Array as="points"/>
                        <mxPoint x="620" y="970.2" as="targetPoint"/>
                    </mxGeometry>
                </mxCell>
                <mxCell id="180" style="edgeStyle=none;rounded=0;html=1;exitX=0;exitY=0.5;exitDx=0;exitDy=0;exitPerimeter=0;endArrow=none;endFill=0;" edge="1" parent="1" source="178">
                    <mxGeometry relative="1" as="geometry">
                        <mxPoint x="620" y="970.2" as="targetPoint"/>
                    </mxGeometry>
                </mxCell>
                <mxCell id="181" style="edgeStyle=none;rounded=0;html=1;entryX=0.666;entryY=1.014;entryDx=0;entryDy=0;entryPerimeter=0;endArrow=none;endFill=0;" edge="1" parent="1" source="178" target="177">
                    <mxGeometry relative="1" as="geometry"/>
                </mxCell>
                <mxCell id="178" value="" style="verticalLabelPosition=bottom;shadow=0;dashed=0;align=center;html=1;verticalAlign=top;shape=mxgraph.electrical.logic_gates.inverter_2;rotation=-180;" vertex="1" parent="1">
                    <mxGeometry x="495" y="930.3000000000001" width="120" height="80" as="geometry"/>
                </mxCell>
                <mxCell id="184" value="MODE" style="text;html=1;strokeColor=none;fillColor=none;align=center;verticalAlign=middle;whiteSpace=wrap;rounded=0;" vertex="1" parent="1">
                    <mxGeometry x="520" y="1000.2" width="40" height="40.1" as="geometry"/>
                </mxCell>
                <mxCell id="185" value="0" style="text;html=1;strokeColor=none;fillColor=none;align=center;verticalAlign=middle;whiteSpace=wrap;rounded=0;" vertex="1" parent="1">
                    <mxGeometry x="450" y="952.75" width="30" height="35.1" as="geometry"/>
                </mxCell>
                <mxCell id="186" value="1" style="text;html=1;strokeColor=none;fillColor=none;align=center;verticalAlign=middle;whiteSpace=wrap;rounded=0;" vertex="1" parent="1">
                    <mxGeometry x="452.5" y="1005.25" width="25" height="30" as="geometry"/>
                </mxCell>
                <mxCell id="172" value="D" style="text;html=1;strokeColor=none;fillColor=none;align=center;verticalAlign=middle;whiteSpace=wrap;rounded=0;" vertex="1" parent="1">
                    <mxGeometry x="20" y="895" width="20" height="30" as="geometry"/>
                </mxCell>
                <mxCell id="199" style="edgeStyle=none;rounded=0;html=1;exitX=0.25;exitY=1;exitDx=0;exitDy=0;endArrow=none;endFill=0;" edge="1" parent="1" source="190">
                    <mxGeometry relative="1" as="geometry">
                        <mxPoint x="40" y="849.9741935483871" as="targetPoint"/>
                    </mxGeometry>
                </mxCell>
                <mxCell id="200" style="edgeStyle=none;rounded=0;html=1;exitX=0.75;exitY=1;exitDx=0;exitDy=0;endArrow=none;endFill=0;" edge="1" parent="1" source="190">
                    <mxGeometry relative="1" as="geometry">
                        <mxPoint x="40" y="909.9741935483871" as="targetPoint"/>
                    </mxGeometry>
                </mxCell>
                <mxCell id="190" value="" style="shape=trapezoid;perimeter=trapezoidPerimeter;whiteSpace=wrap;html=1;fixedSize=1;rotation=90;" vertex="1" parent="1">
                    <mxGeometry x="30" y="850" width="120" height="60" as="geometry"/>
                </mxCell>
                <mxCell id="194" value="MODE" style="text;html=1;strokeColor=none;fillColor=none;align=center;verticalAlign=middle;whiteSpace=wrap;rounded=0;" vertex="1" parent="1">
                    <mxGeometry y="830.2" width="40" height="40.1" as="geometry"/>
                </mxCell>
                <mxCell id="201" value="0" style="text;html=1;strokeColor=none;fillColor=none;align=center;verticalAlign=middle;whiteSpace=wrap;rounded=0;" vertex="1" parent="1">
                    <mxGeometry x="60" y="895" width="25" height="30" as="geometry"/>
                </mxCell>
                <mxCell id="202" value="1" style="text;html=1;strokeColor=none;fillColor=none;align=center;verticalAlign=middle;whiteSpace=wrap;rounded=0;" vertex="1" parent="1">
                    <mxGeometry x="60" y="835.25" width="25" height="30" as="geometry"/>
                </mxCell>
            </root>
        </mxGraphModel>
    </diagram>
</mxfile>